<svg xmlns="http://www.w3.org/2000/svg" width="512" height="512" viewBox="0 0 512 512" role="img" aria-label="ScanWise logo">
  <rect width="512" height="512" rx="96" fill="#16A34A"/>
  <!-- Barcode-style accent lines under the S -->
  <g fill="#ffffff" opacity="0.25">
    <rect x="96"  y="372" width="8"  height="44"/>
    <rect x="112" y="372" width="16" height="44"/>
    <rect x="136" y="372" width="6"  height="44"/>
    <rect x="148" y="372" width="20" height="44"/>
    <rect x="176" y="372" width="10" height="44"/>
    <rect x="192" y="372" width="14" height="44"/>
    <rect x="212" y="372" width="8"  height="44"/>
    <rect x="228" y="372" width="22" height="44"/>
    <rect x="256" y="372" width="6"  height="44"/>
    <rect x="268" y="372" width="18" height="44"/>
    <rect x="292" y="372" width="10" height="44"/>
    <rect x="308" y="372" width="14" height="44"/>
    <rect x="328" y="372" width="8"  height="44"/>
    <rect x="344" y="372" width="22" height="44"/>
    <rect x="372" y="372" width="10" height="44"/>
    <rect x="388" y="372" width="14" height="44"/>
    <rect x="408" y="372" width="8"  height="44"/>
  </g>
  <!-- The S letter -->
  <text x="256" y="300" text-anchor="middle" font-family="Inter, Helvetica, Arial, sans-serif" font-weight="700" font-size="280" fill="#ffffff">S</text>
</svg>
